<?xml version="1.0" encoding="utf-8"?>
<!-- Generator: Adobe Illustrator 20.1.0, SVG Export Plug-In . SVG Version: 6.00 Build 0)  -->
<svg version="1.1" id="Layer_1" xmlns="http://www.w3.org/2000/svg" xmlns:xlink="http://www.w3.org/1999/xlink" x="0px" y="0px"
	 width="600px" height="202px" viewBox="0 0 600 202" style="enable-background:new 0 0 600 202;" xml:space="preserve">
<style type="text/css">
	.st0{fill:#04080B;}
	.st1{fill:#FFFFFF;stroke:#FFFFFF;stroke-width:0.9619;stroke-miterlimit:10;}
	.st2{fill:#FFFFFF;}
	.st3{fill:#42AF36;}
	.st4{fill:#DF2935;}
</style>
<g>
	<path class="st0" d="M558.3,202H41.7C18.7,202,0,183.3,0,160.3V41.7C0,18.7,18.7,0,41.7,0h516.5C581.3,0,600,18.7,600,41.7v118.5
		C600,183.3,581.3,202,558.3,202z"/>
	<g>
		<g>
			<path class="st1" d="M126,118.8c2.8-0.4,6.4-0.8,11-0.8c5.7,0,9.8,1.2,12.5,3.4c2.4,2,3.9,5,3.9,8.6c0,3.7-1.2,6.7-3.4,8.8
				c-3,3-8,4.5-13.6,4.5c-1.7,0-3.3-0.1-4.6-0.4v16.5H126V118.8z M131.7,138.7c1.3,0.3,2.8,0.4,4.8,0.4c6.9,0,11.2-3.1,11.2-8.8
				c0-5.4-4.2-8.1-10.5-8.1c-2.5,0-4.4,0.2-5.4,0.4V138.7z"/>
			<path class="st1" d="M160.9,139.2c0-3.5-0.1-6.5-0.3-9.2h5.1l0.2,5.8h0.3c1.5-4,5-6.5,8.9-6.5c0.7,0,1.1,0.1,1.7,0.2v5.1
				c-0.6-0.1-1.2-0.2-2-0.2c-4.1,0-7,2.9-7.8,6.9c-0.1,0.7-0.3,1.6-0.3,2.5v15.8h-5.7V139.2z"/>
			<path class="st1" d="M211.4,144.5c0,10.9-8.2,15.7-15.9,15.7c-8.7,0-15.3-5.9-15.3-15.2c0-9.9,7-15.7,15.8-15.7
				C205.2,129.3,211.4,135.5,211.4,144.5z M186.1,144.8c0,6.5,4,11.4,9.7,11.4c5.5,0,9.7-4.8,9.7-11.5c0-5-2.7-11.4-9.6-11.4
				C189,133.3,186.1,139.2,186.1,144.8z"/>
			<path class="st1" d="M219.3,159.5V134h-4.5V130h4.5v-1.4c0-4.2,1-7.9,3.7-10.3c2.2-2,5.1-2.7,7.8-2.7c2,0,3.8,0.4,5,0.9l-0.8,4.2
				c-0.9-0.4-2-0.7-3.7-0.7c-5,0-6.2,4-6.2,8.6v1.6h7.7v4.1h-7.7v25.5H219.3z"/>
			<path class="st1" d="M241.3,145.7c0.1,7.3,5.2,10.3,11,10.3c4.2,0,6.7-0.7,8.8-1.5l1,3.9c-2,0.9-5.5,1.8-10.6,1.8
				c-9.8,0-15.7-6-15.7-14.9s5.7-15.9,15-15.9c10.4,0,13.2,8.5,13.2,13.9c0,1.1-0.1,2-0.2,2.5H241.3z M258.3,141.9
				c0.1-3.4-1.5-8.7-8.1-8.7c-5.9,0-8.5,5-8.9,8.7H258.3z"/>
			<path class="st1" d="M270.3,154c1.7,1,4.8,2.1,7.7,2.1c4.2,0,6.2-2,6.2-4.4c0-2.6-1.7-4-5.9-5.4c-5.7-1.9-8.5-4.8-8.5-8.4
				c0-4.8,4.2-8.7,11-8.7c3.2,0,6.1,0.9,7.9,1.8l-1.5,3.9c-1.3-0.7-3.6-1.7-6.5-1.7c-3.4,0-5.4,1.8-5.4,4c0,2.4,1.9,3.5,6.1,5
				c5.5,2,8.4,4.5,8.4,8.9c0,5.2-4.4,8.9-12,8.9c-3.5,0-6.7-0.8-9-2L270.3,154z"/>
			<path class="st1" d="M296.5,154c1.7,1,4.8,2.1,7.7,2.1c4.2,0,6.2-2,6.2-4.4c0-2.6-1.7-4-5.9-5.4c-5.7-1.9-8.5-4.8-8.5-8.4
				c0-4.8,4.2-8.7,11-8.7c3.2,0,6.1,0.9,7.9,1.8l-1.5,3.9c-1.3-0.7-3.6-1.7-6.5-1.7c-3.4,0-5.3,1.8-5.3,4c0,2.4,1.9,3.5,6.1,5
				c5.5,2,8.4,4.5,8.4,8.9c0,5.2-4.4,8.9-12,8.9c-3.5,0-6.7-0.8-9-2L296.5,154z"/>
			<path class="st1" d="M329.9,121.6c0.1,1.8-1.4,3.3-3.7,3.3c-2,0-3.5-1.5-3.5-3.3c0-1.9,1.5-3.4,3.6-3.4
				C328.5,118.3,329.9,119.7,329.9,121.6z M323.4,159.5V130h5.8v29.6H323.4z"/>
			<path class="st1" d="M367.8,144.5c0,10.9-8.2,15.7-15.9,15.7c-8.7,0-15.3-5.9-15.3-15.2c0-9.9,7-15.7,15.8-15.7
				C361.6,129.3,367.8,135.5,367.8,144.5z M342.4,144.8c0,6.5,4,11.4,9.7,11.4c5.5,0,9.7-4.8,9.7-11.5c0-5-2.7-11.4-9.6-11.4
				C345.4,133.3,342.4,139.2,342.4,144.8z"/>
			<path class="st1" d="M375.1,138c0-3.1-0.1-5.6-0.3-8h5.2l0.3,4.9h0.1c1.6-2.8,5.3-5.6,10.6-5.6c4.4,0,11.3,2.4,11.3,12.6v17.7
				h-5.8v-17c0-4.8-1.9-8.7-7.4-8.7c-3.8,0-6.8,2.5-7.8,5.5c-0.3,0.7-0.4,1.6-0.4,2.5v17.8h-5.8V138z"/>
			<path class="st1" d="M429.4,159.5l-0.5-3.7h-0.2c-1.8,2.3-5.2,4.4-9.8,4.4c-6.5,0-9.8-4.2-9.8-8.5c0-7.1,6.9-11.1,19.2-11v-0.6
				c0-2.4-0.7-6.8-7.3-6.8c-3,0-6.1,0.9-8.3,2.2l-1.3-3.5c2.6-1.6,6.5-2.6,10.5-2.6c9.8,0,12.2,6.2,12.2,12.1v11.1
				c0,2.6,0.1,5.1,0.5,7.1H429.4z M428.6,144.4c-6.3-0.1-13.5,0.9-13.5,6.7c0,3.5,2.5,5.1,5.5,5.1c4.2,0,6.8-2.4,7.7-4.9
				c0.2-0.6,0.3-1.2,0.3-1.7V144.4z"/>
			<path class="st1" d="M443.5,116.1h5.8v43.4h-5.8V116.1z"/>
			<path class="st1" d="M458.3,154c1.7,1,4.8,2.1,7.7,2.1c4.2,0,6.2-2,6.2-4.4c0-2.6-1.7-4-5.9-5.4c-5.7-1.9-8.5-4.8-8.5-8.4
				c0-4.8,4.2-8.7,11-8.7c3.2,0,6.1,0.9,7.9,1.8l-1.5,3.9c-1.3-0.7-3.6-1.7-6.5-1.7c-3.4,0-5.4,1.8-5.4,4c0,2.4,1.9,3.5,6.1,5
				c5.5,2,8.4,4.5,8.4,8.9c0,5.2-4.4,8.9-12,8.9c-3.5,0-6.7-0.8-9-2L458.3,154z"/>
		</g>
		<g>
			<g>
				<path class="st2" d="M54.8,53.3c1.9-0.3,4.4-0.6,7.5-0.6c3.9,0,6.7,0.9,8.5,2.5c1.7,1.4,2.7,3.7,2.7,6.4c0,2.8-0.8,4.9-2.3,6.5
					c-2.1,2.2-5.5,3.3-9.3,3.3c-1.2,0-2.3,0-3.2-0.3v12.2h-3.9V53.3z M58.8,67.9c0.9,0.2,1.9,0.3,3.3,0.3c4.7,0,7.6-2.3,7.6-6.5
					c0-4-2.8-6-7.2-6c-1.7,0-3,0.1-3.7,0.3V67.9z"/>
				<path class="st2" d="M78.7,51.3h4v13.6h0.1c0.6-1.1,1.6-2.1,2.8-2.8c1.2-0.7,2.6-1.1,4.1-1.1c2.9,0,7.6,1.8,7.6,9.3v13h-4V70.8
					c0-3.5-1.3-6.5-5.1-6.5c-2.6,0-4.6,1.8-5.3,4c-0.2,0.5-0.3,1.1-0.3,1.9v13.2h-4V51.3z"/>
				<path class="st2" d="M115.9,83.3l-0.3-2.8h-0.1c-1.2,1.7-3.6,3.3-6.7,3.3c-4.4,0-6.7-3.1-6.7-6.3c0-5.3,4.7-8.2,13.1-8.1V69
					c0-1.8-0.5-5.1-5-5.1c-2,0-4.2,0.6-5.7,1.6l-0.9-2.6c1.8-1.2,4.4-1.9,7.2-1.9c6.7,0,8.3,4.6,8.3,8.9v8.2c0,1.9,0.1,3.7,0.4,5.2
					H115.9z M115.3,72.2c-4.3-0.1-9.3,0.7-9.3,4.9c0,2.6,1.7,3.8,3.7,3.8c2.8,0,4.7-1.8,5.3-3.7c0.1-0.4,0.2-0.9,0.2-1.3V72.2z"/>
				<path class="st2" d="M125.6,68.3c0-2.6,0-4.8-0.2-6.8h3.5l0.1,4.3h0.2c1-2.9,3.4-4.8,6.1-4.8c0.5,0,0.8,0,1.1,0.1v3.7
					c-0.4-0.1-0.8-0.1-1.4-0.1c-2.8,0-4.8,2.1-5.3,5.1c-0.1,0.5-0.2,1.2-0.2,1.9v11.7h-3.9V68.3z"/>
				<path class="st2" d="M140.3,67.4c0-2.3,0-4.1-0.2-5.9h3.5l0.2,3.5h0.1c1.2-2.1,3.3-4,6.9-4c3,0,5.2,1.8,6.2,4.4h0.1
					c0.7-1.2,1.5-2.2,2.4-2.8c1.3-1,2.8-1.5,4.8-1.5c2.9,0,7.2,1.9,7.2,9.5v12.9h-3.9V71c0-4.2-1.5-6.7-4.7-6.7
					c-2.3,0-4,1.7-4.7,3.6c-0.2,0.5-0.3,1.3-0.3,2v13.5H154V70.3c0-3.5-1.5-6-4.6-6c-2.5,0-4.3,2-4.9,4c-0.2,0.6-0.3,1.3-0.3,1.9
					v13.2h-3.9V67.4z"/>
				<path class="st2" d="M190.1,83.3l-0.3-2.8h-0.1c-1.2,1.7-3.6,3.3-6.7,3.3c-4.4,0-6.7-3.1-6.7-6.3c0-5.3,4.7-8.2,13.1-8.1V69
					c0-1.8-0.5-5.1-5-5.1c-2,0-4.2,0.6-5.7,1.6l-0.9-2.6c1.8-1.2,4.4-1.9,7.2-1.9c6.7,0,8.3,4.6,8.3,8.9v8.2c0,1.9,0.1,3.7,0.4,5.2
					H190.1z M189.5,72.2c-4.3-0.1-9.3,0.7-9.3,4.9c0,2.6,1.7,3.8,3.7,3.8c2.8,0,4.7-1.8,5.3-3.7c0.1-0.4,0.2-0.9,0.2-1.3V72.2z"/>
				<path class="st2" d="M215.3,82.5c-1,0.5-3.3,1.3-6.3,1.3c-6.6,0-10.9-4.5-10.9-11.2c0-6.7,4.6-11.6,11.7-11.6
					c2.3,0,4.4,0.6,5.5,1.1l-0.9,3.1c-0.9-0.5-2.4-1-4.6-1c-5,0-7.7,3.7-7.7,8.3c0,5.1,3.3,8.2,7.6,8.2c2.3,0,3.7-0.6,4.9-1.1
					L215.3,82.5z"/>
				<path class="st2" d="M222.2,73.1c0.1,5.4,3.5,7.6,7.5,7.6c2.8,0,4.6-0.5,6.1-1.1l0.7,2.8c-1.4,0.6-3.8,1.4-7.3,1.4
					c-6.7,0-10.7-4.4-10.7-11c0-6.6,3.9-11.8,10.3-11.8c7.1,0,9,6.3,9,10.3c0,0.8-0.1,1.4-0.1,1.9H222.2z M233.9,70.3
					c0-2.5-1-6.5-5.5-6.5c-4,0-5.8,3.7-6.1,6.5H233.9z"/>
				<path class="st2" d="M260.9,77.4c0,2.3,0,4.2,0.2,6h-3.5l-0.2-3.6h-0.1c-1,1.8-3.3,4.1-7.2,4.1c-3.4,0-7.5-1.9-7.5-9.6V61.5h4
					v12.1c0,4.2,1.3,7,4.9,7c2.7,0,4.5-1.9,5.2-3.6c0.2-0.6,0.4-1.3,0.4-2V61.5h4V77.4z"/>
				<path class="st2" d="M272.3,55.2v6.3h5.7v3h-5.7v11.8c0,2.7,0.8,4.2,3,4.2c1,0,1.8-0.1,2.3-0.3l0.2,3c-0.8,0.3-2,0.5-3.5,0.5
					c-1.9,0-3.3-0.6-4.3-1.7c-1.1-1.2-1.5-3.1-1.5-5.7V64.5H265v-3h3.4v-5.2L272.3,55.2z"/>
				<path class="st2" d="M286.9,55.3c0,1.4-0.9,2.4-2.5,2.4c-1.4,0-2.4-1.1-2.4-2.4c0-1.4,1-2.5,2.5-2.5
					C285.9,52.9,286.9,53.9,286.9,55.3z M282.5,83.3V61.5h4v21.9H282.5z"/>
				<path class="st2" d="M308.6,82.5c-1,0.5-3.3,1.3-6.3,1.3c-6.6,0-10.9-4.5-10.9-11.2c0-6.7,4.6-11.6,11.7-11.6
					c2.3,0,4.4,0.6,5.5,1.1l-0.9,3.1c-0.9-0.5-2.4-1-4.6-1c-5,0-7.7,3.7-7.7,8.3c0,5.1,3.3,8.2,7.6,8.2c2.3,0,3.7-0.6,4.9-1.1
					L308.6,82.5z"/>
				<path class="st2" d="M325.6,83.3l-0.3-2.8h-0.1c-1.2,1.7-3.6,3.3-6.7,3.3c-4.4,0-6.7-3.1-6.7-6.3c0-5.3,4.7-8.2,13.1-8.1V69
					c0-1.8-0.5-5.1-5-5.1c-2,0-4.2,0.6-5.7,1.6l-0.9-2.6c1.8-1.2,4.4-1.9,7.2-1.9c6.7,0,8.3,4.6,8.3,8.9v8.2c0,1.9,0.1,3.7,0.4,5.2
					H325.6z M325,72.2c-4.3-0.1-9.3,0.7-9.3,4.9c0,2.6,1.7,3.8,3.7,3.8c2.8,0,4.7-1.8,5.3-3.7c0.1-0.4,0.2-0.9,0.2-1.3V72.2z"/>
				<path class="st2" d="M335.2,51.3h4v32.1h-4V51.3z"/>
				<path class="st2" d="M429.1,70c-0.2-4.2-0.5-9.3-0.5-13.1h-0.1c-1,3.6-2.3,7.4-3.8,11.6l-5.4,14.8h-3l-4.9-14.5
					c-1.4-4.3-2.7-8.2-3.5-11.8h-0.1c-0.1,3.8-0.3,8.9-0.6,13.5l-0.8,13.1h-3.7l2.1-30.4h5l5.2,14.7c1.3,3.7,2.3,7.1,3.1,10.3h0.1
					c0.8-3.1,1.9-6.4,3.2-10.3l5.4-14.7h5l1.9,30.4h-3.8L429.1,70z"/>
				<path class="st2" d="M442.3,73.1c0.1,5.4,3.5,7.6,7.5,7.6c2.8,0,4.6-0.5,6.1-1.1l0.7,2.8c-1.4,0.6-3.8,1.4-7.3,1.4
					c-6.7,0-10.7-4.4-10.7-11c0-6.6,3.9-11.8,10.3-11.8c7.1,0,9,6.3,9,10.3c0,0.8-0.1,1.4-0.1,1.9H442.3z M453.9,70.3
					c0-2.5-1-6.5-5.5-6.5c-4,0-5.8,3.7-6.1,6.5H453.9z"/>
				<path class="st2" d="M481.8,51.3v26.4c0,1.9,0,4.2,0.2,5.6h-3.6l-0.2-3.8h-0.1c-1.2,2.4-3.9,4.3-7.5,4.3
					c-5.3,0-9.3-4.5-9.3-11.1c0-7.3,4.5-11.7,9.8-11.7c3.3,0,5.6,1.6,6.6,3.3h0.1V51.3H481.8z M477.8,70.4c0-0.5,0-1.2-0.2-1.7
					c-0.6-2.5-2.8-4.6-5.7-4.6c-4.1,0-6.5,3.6-6.5,8.4c0,4.4,2.2,8.1,6.5,8.1c2.7,0,5.1-1.8,5.8-4.7c0.1-0.5,0.2-1.1,0.2-1.7V70.4z"
					/>
				<path class="st2" d="M492.8,55.3c0,1.4-0.9,2.4-2.5,2.4c-1.4,0-2.4-1.1-2.4-2.4c0-1.4,1-2.5,2.5-2.5
					C491.9,52.9,492.8,53.9,492.8,55.3z M488.4,83.3V61.5h4v21.9H488.4z"/>
				<path class="st2" d="M514.5,82.5c-1,0.5-3.3,1.3-6.3,1.3c-6.6,0-10.9-4.5-10.9-11.2c0-6.7,4.6-11.6,11.7-11.6
					c2.3,0,4.4,0.6,5.5,1.1l-0.9,3.1c-0.9-0.5-2.4-1-4.6-1c-5,0-7.7,3.7-7.7,8.3c0,5.1,3.3,8.2,7.6,8.2c2.3,0,3.7-0.6,4.9-1.1
					L514.5,82.5z"/>
				<path class="st2" d="M531.5,83.3l-0.3-2.8h-0.1c-1.2,1.7-3.6,3.3-6.7,3.3c-4.4,0-6.7-3.1-6.7-6.3c0-5.3,4.7-8.2,13.1-8.1V69
					c0-1.8-0.5-5.1-5-5.1c-2,0-4.2,0.6-5.7,1.6l-0.9-2.6c1.8-1.2,4.4-1.9,7.2-1.9c6.7,0,8.3,4.6,8.3,8.9v8.2c0,1.9,0.1,3.7,0.4,5.2
					H531.5z M530.9,72.2c-4.3-0.1-9.3,0.7-9.3,4.9c0,2.6,1.7,3.8,3.7,3.8c2.8,0,4.7-1.8,5.3-3.7c0.1-0.4,0.2-0.9,0.2-1.3V72.2z"/>
				<path class="st2" d="M541.2,51.3h4v32.1h-4V51.3z"/>
			</g>
			<g>
				<path class="st3" d="M367,37.8V42c-0.9,0.3-1.7,0.7-2.5,1.2c-0.1,0.2-0.3,0.3-0.4,0.5c-0.1,0.1-0.3,0.2-0.4,0.3v0.3
					c-0.1,0.1-0.3,0.2-0.4,0.3v0.3h-0.1v0.3h-0.1v0.4c-0.1,0-0.2,0.1-0.3,0.1v0.3h-0.1v0.5h-0.1v0.4h-0.1c-0.1,0.3-0.3,2.8-0.1,3.2
					h0.1c0.1,0.6,0.3,1.2,0.4,1.8c0.1,0,0.2,0.1,0.3,0.1v0.4h0.1v0.3h0.1v0.3l0.3,0.1c0.1,0.3,0.2,0.5,0.3,0.8
					c0.2,0.1,0.3,0.3,0.5,0.4v0.3c0.2,0.1,0.3,0.3,0.5,0.4v0.3c0.3,0.3,0.7,0.6,1,0.9v0.3c0.5,0.4,1,0.9,1.4,1.3
					c0.2,0.3,0.4,0.5,0.6,0.8c0.1,0.1,0.3,0.2,0.4,0.3v0.3c0.5,0.5,1,1,1.6,1.4c0.1,0.2,0.3,0.3,0.4,0.5c0.1,0,0.2,0.1,0.3,0.1V61
					c0.2,0.1,0.3,0.2,0.5,0.3v0.3l1.6,1.4c0,0.1,0.1,0.3,0.1,0.4c0.1,0,0.3,0.1,0.4,0.1v0.1h0.1v0.3c0.1,0,0.3,0.1,0.4,0.1v0.3
					c0.4,0.4,0.9,0.8,1.3,1.2c0,0.1,0.1,0.3,0.1,0.4h0.3v0.3c0.5,0.3,0.9,0.9,1.3,1.3c0.4,0.3,0.8,0.7,1.2,1v0.3h0.1
					c0.1,0.2,0.3,0.3,0.4,0.5c0.3,0.3,0.6,0.5,0.9,0.8c0.2,0.2,0.3,0.4,0.5,0.6c0.1,0,0.2,0.1,0.3,0.1V71h0.1
					c0.2,0.2,0.1,0.2,0.4,0.3v0.3c0.4,0.3,0.8,0.7,1.2,1c0,0.1,0.1,0.3,0.1,0.4h0.3c0.1,0.2,0.2,0.3,0.3,0.5c0.1,0,0.3,0.1,0.4,0.1
					v0.3c0.5,0.4,1,0.9,1.4,1.3c0.1,0.2,0.3,0.4,0.4,0.6c0.1,0,0.3,0.1,0.4,0.1v0.3c0.6,0.5,1.1,1,1.7,1.6v0.1
					c0.1,0,0.2,0.1,0.3,0.1v0.3c0.2,0.1,0.3,0.3,0.5,0.4c0.3,0.4,0.7,0.8,1,1.2c0.4,0.3,0.8,0.7,1.2,1v0.3c0.1,0,0.2,0.1,0.3,0.1
					c0.1,0.2,0.3,0.3,0.4,0.5c0.4,0.4,0.9,0.6,1,1.2c0.7,0.2,0.3,0.4,0.6,0.6h0.3c0,0.1,0.1,0.3,0.1,0.4c0.1,0,0.2,0.1,0.3,0.1
					c0.3,0.3,0.8,0.7,0.9,1.2c0.5,0.1,0.4,0.4,0.6,0.6h0.3l-0.1,0.1c-0.3,0.2-1.1,0.1-1.6,0.1h-4c-0.4-0.6-1.1-1.1-1.6-1.6
					c-0.2-0.2-0.3-0.4-0.5-0.6c-0.1,0-0.2-0.1-0.3-0.1v-0.3c-0.6-0.6-1.3-1.2-1.9-1.8c-0.3-0.3-0.5-0.6-0.8-0.9
					c-0.1-0.1-0.3-0.2-0.4-0.3c0-0.1-0.1-0.3-0.1-0.4H383v-0.3c-0.4-0.2-2.2-2-2.3-2.5c-0.7-0.2-0.3-0.4-0.6-0.6
					c-0.5-0.4-1.9-1.6-2.1-2.2c-0.3-0.1-0.2-0.1-0.4-0.3h-0.1v-0.3c-0.1,0-0.3-0.1-0.4-0.1c-0.3-0.3,0-0.5-0.6-0.6v-0.3
					c-0.7-0.7-1.5-1.4-2.2-2.1v-0.3c-0.7-0.6-1.4-1.3-2.1-1.9c-0.2-0.3-0.4-0.5-0.6-0.8c-0.1-0.1-0.3-0.2-0.4-0.3
					c0-0.1-0.1-0.3-0.1-0.4h-0.3v-0.3c-0.8-0.7-1.6-1.5-2.3-2.2v-0.3c-0.2-0.1-0.3-0.2-0.5-0.3v-0.3c-0.1,0-0.3-0.1-0.4-0.1
					c-0.1-0.2-0.2-0.3-0.3-0.5c-0.5-0.4-1-0.9-1.4-1.3c0-0.1-0.1-0.3-0.1-0.4c-0.2-0.1-0.3-0.2-0.5-0.3v-0.3c-0.1,0-0.3-0.1-0.4-0.1
					c-0.3-0.3,0-0.5-0.6-0.6v-0.3c-0.4-0.2-1.7-1.5-1.8-1.9H362c0-0.1-0.1-0.3-0.1-0.4c-0.3-0.2-0.5-0.4-0.8-0.6V57
					c-0.2-0.1-0.3-0.3-0.5-0.4v-0.3c-0.2-0.1-0.3-0.3-0.5-0.4c0-0.2-0.1-0.3-0.1-0.5c-0.1-0.1-0.3-0.2-0.4-0.3
					c-0.1-0.3-0.2-0.5-0.3-0.8c-0.1,0-0.2-0.1-0.3-0.1V54h-0.1c0-0.2-0.1-0.4-0.1-0.6c-0.1,0-0.2-0.1-0.3-0.1v-0.4h-0.1v-0.4h-0.1
					v-0.4h-0.1v-0.3h-0.1c0-0.4-0.1-0.8-0.1-1.2h-0.1c0-1.1-0.1-2.2-0.1-3.4h0.1c0-0.6,0.1-1.1,0.1-1.7h0.1v-0.5h0.1v-0.3h0.1v-0.4
					h0.1v-0.5h0.1v-0.3h0.1v-0.3c0.1,0,0.2-0.1,0.3-0.1v-0.4c0.1,0,0.2-0.1,0.3-0.1v-0.3c0.1,0,0.2-0.1,0.3-0.1v-0.3
					c0.1,0,0.2-0.1,0.3-0.1v-0.3c0.1-0.1,0.3-0.2,0.4-0.3v-0.3c0.2-0.1,0.3-0.2,0.5-0.3v-0.3l0.3-0.3h0.3c0.1-0.2,0.3-0.3,0.4-0.5
					h0.3c0-0.1,0.1-0.2,0.1-0.3c0.1,0,0.3-0.1,0.4-0.1v-0.1c0.2,0,0.3-0.1,0.5-0.1c0-0.1,0.1-0.2,0.1-0.3h0.3v-0.1h0.3v-0.1h0.4
					v-0.1h0.3v-0.1h0.4v-0.1C365.3,38.1,366.1,38,367,37.8"/>
				<path class="st4" d="M370.3,37.8c1,0,2,0.3,2.7,0.5h0.5v0.1h0.3v0.1h0.4v0.1h0.3v0.1c0.2,0,0.4,0.1,0.6,0.1
					c0,0.1,0.1,0.2,0.1,0.3c0.3,0.1,0.5,0.2,0.8,0.3c0.1,0.1,0.2,0.3,0.3,0.4c0.2,0,0.3,0.1,0.5,0.1v0.1c0.2,0.2,0.3,0.3,0.7,0.4
					c0.2,0.6,0.5,0.5,0.6,1h0.3c0.1,0.3,0.2,0.6,0.4,0.8c0.1,0,0.2,0.1,0.3,0.1c0,0.2,0.1,0.3,0.1,0.5c0.1,0,0.2,0.1,0.3,0.1
					c0,0.2,0.1,0.4,0.1,0.6h0.1V44h0.1c0,0.2,0.1,0.4,0.1,0.6h0.1v0.4h0.1v0.7c0.4,1.3,0.6,3.3,0.1,4.8v0.8h-0.1v0.5H380v0.5h-0.1
					c0,0.2-0.1,0.3-0.1,0.5h-0.1v0.4h-0.1v0.3h-0.1v0.3c-0.1,0-0.2,0.1-0.3,0.1c-0.1,0.3-0.2,0.5-0.3,0.8c-0.1,0.1-0.3,0.2-0.4,0.3
					v0.3c-0.2,0.1-0.3,0.3-0.5,0.4v0.3c-0.1,0.1-0.3,0.2-0.4,0.3c-0.3,0.4-0.7,0.8-1,1.2h-0.3v0.3c-0.1,0-0.3,0.1-0.4,0.1
					c-0.1,0.2-0.3,0.3-0.4,0.5h-0.3c-0.1,0.1-0.2,0.3-0.3,0.4h-0.3c-0.1,0.1-0.2,0.3-0.3,0.4h-0.3c-0.1,0.1-0.2,0.3-0.3,0.4
					c-0.2,0.2-0.3,0-0.5,0.3c-0.3-0.1-0.2-0.1-0.4-0.3h-0.1v-0.3c-0.1,0-0.3-0.1-0.4-0.1c-0.3-0.3,0-0.5-0.6-0.6V58
					c-0.4-0.2-1.1-0.9-1.2-1.4h0.3c0.3-0.5,0.4-0.3,0.8-0.5c0.1-0.2,0.3-0.3,0.4-0.5h0.3c0.2-0.3,0.4-0.5,0.6-0.8
					c0.1,0,0.3-0.1,0.4-0.1v-0.3h0.3c0.1-0.3,0.2-0.4,0.4-0.6h0.1v-0.3c0.1-0.1,0.3-0.2,0.4-0.3c0-0.2,0.1-0.3,0.1-0.5
					c0.1,0,0.2-0.1,0.3-0.1v-0.3h0.1v-0.4h0.1v-0.4h0.1v-0.4h0.1v-0.4h0.1v-0.9h0.1c0.2-0.6,0-2.3-0.1-2.7v-0.6h-0.1
					c0-0.2-0.1-0.3-0.1-0.5h-0.1v-0.4H375v-0.3h-0.1v-0.3c-0.1,0-0.2-0.1-0.3-0.1c0-0.2-0.1-0.3-0.1-0.5c-0.1-0.1-0.3-0.2-0.4-0.3
					v-0.3l-0.3-0.3h-0.3c-0.1-0.2-0.3-0.3-0.4-0.5H373c-0.1-0.1-0.2-0.3-0.3-0.4h-0.3v-0.1h-0.3v-0.1h-0.4v-0.1h-0.3v-0.1
					c-0.5-0.2-0.8,0-1.2-0.3c-0.2-0.2-0.1-0.8-0.1-1.2V37.8z"/>
				<path class="st4" d="M386.5,73.7h-0.3v-0.3h-0.3c-0.3-0.2,0-0.5-0.7-0.6c-0.2-0.6-0.5-0.5-0.6-1h-0.3v-0.1
					c-0.1,0-0.2-0.1-0.3-0.1v-0.3c-0.3-0.2-0.5-0.4-0.8-0.6v-0.4h0.1c0.1-0.6,0.2-1.2,0.3-1.8h0.1c0-0.5,0.1-1,0.1-1.4
					c0.4-1.4,0.5-3.3,0.5-5.1c0.7-0.3,2-0.1,3-0.1h6.1c0.4,1,0.1,2.8,0.1,4c-1,0.4-4,0.1-5.3,0.1c-0.1,0.1,0,0-0.1,0.1
					c0,0.9-0.2,1.8-0.4,2.5c0,0.5-0.1,1-0.1,1.4h-0.1v0.3h-0.1c-0.1,0.5-0.2,1-0.3,1.6h-0.1c0,0.2-0.1,0.3-0.1,0.5h-0.1v0.5
					C386.7,73.1,386.5,73.4,386.5,73.7"/>
				<path class="st4" d="M360.9,67.8h-0.3c-0.1,0.2-0.3,0.4-0.4,0.6c-0.1,0-0.3,0.1-0.4,0.1v0.3c-0.1,0.1-0.3,0.2-0.4,0.3
					c0,0.2-0.1,0.3-0.1,0.5c-0.1,0.1-0.3,0.2-0.4,0.3c0,0.2-0.1,0.3-0.1,0.5h-0.1c-0.1,0.3-0.2,0.5-0.3,0.8h-0.1v0.5
					c-0.4,1.3-0.7,3-0.3,4.4v0.6h0.1v0.4h0.1c0,0.3,0.1,0.5,0.1,0.8c0.1,0,0.2,0.1,0.3,0.1c0,0.2,0.1,0.4,0.1,0.6
					c0.1,0,0.2,0.1,0.3,0.1c0,0.1,0.1,0.3,0.1,0.4h0.1c0,0.1,0.1,0.3,0.1,0.4c0.5,0.2,0.1,0.1,0.4,0.4c0.1,0,0.2,0.1,0.3,0.1v0.1
					c0.1,0,0.3,0.1,0.4,0.1c0,0.1,0.1,0.3,0.1,0.4h0.3c0.1,0.2,0.3,0.3,0.4,0.5c0.3,0.1,0.5,0.2,0.8,0.3c0,0.1,0.1,0.2,0.1,0.3h0.3
					v0.1c0.3,0,0.5,0.1,0.8,0.1c0,0.1,0.1,0.2,0.1,0.3h0.3v0.1c0.3,0,0.7,0.1,1,0.1c2.5,0.8,6.3,0.4,8.3-0.5h0.4v-0.1h0.3v-0.1h0.4
					c0-0.1,0.1-0.2,0.1-0.3h0.4v-0.1h0.3v-0.1h0.3c0-0.1,0.1-0.2,0.1-0.3c0.2,0,0.3-0.1,0.5-0.1c0-0.1,0.1-0.2,0.1-0.3h0.3v-0.1
					c0.2-0.2,0.4-0.3,0.8-0.4v-0.3c0.8-0.2,0.7-0.7,1.6-0.8v0.3c0.3,0.2,0.3,0.3,0.6,0.4c0.1,0.4,0.1,0.4,0.5,0.5
					c0.1,0.4,0.1,0.4,0.5,0.5V81c0.3,0.2,0.3,0.3,0.6,0.4c0.1,0.3,0.1,0.3,0.3,0.5h-0.1c-0.1,0.2-0.3,0.3-0.4,0.5h-0.3
					c-0.1,0.2-0.3,0.3-0.4,0.5h-0.3c-0.1,0.1-0.2,0.3-0.3,0.4h-0.3v0.1c-0.1,0-0.3,0.1-0.4,0.1c-0.1,0.1-0.2,0.3-0.3,0.4h-0.3v0.1
					h-0.3c0,0.1-0.1,0.2-0.1,0.3h-0.3c0,0.1-0.1,0.2-0.1,0.3H377v0.1h-0.3c0,0.1-0.1,0.2-0.1,0.3c-0.2,0-0.3,0.1-0.5,0.1v0.1h-0.4
					v0.1c-0.2,0-0.3,0.1-0.5,0.1v0.1c-0.3,0-0.5,0.1-0.8,0.1v0.1H374V86h-0.3v0.1c-0.4,0-0.8,0.1-1.2,0.1v0.1h-0.5v0.1h-0.5v0.1
					h-0.9v0.1c-1.2,0-2.4,0.1-3.6,0.1v-0.1h-2.2v-0.1h-0.6v-0.1h-0.6v-0.1H363v-0.1h-0.6v-0.1H362V86h-0.3v-0.1
					c-0.4-0.1-0.8-0.2-1.2-0.3v-0.1c-0.2,0-0.3-0.1-0.5-0.1v-0.1h-0.3v-0.1h-0.4c-0.1-0.1-0.2-0.3-0.3-0.4c-0.3-0.1-0.5-0.2-0.8-0.3
					c-0.1-0.1-0.2-0.3-0.3-0.4h-0.3c-0.1-0.1-0.2-0.3-0.3-0.4h-0.3c-0.2-0.3-0.4-0.5-0.6-0.8c-0.4-0.3-0.8-0.7-1.2-1v-0.3
					c-0.2-0.1-0.3-0.3-0.5-0.4v-0.4c-0.1-0.1-0.3-0.2-0.4-0.3v-0.3h-0.1v-0.3h-0.1v-0.4h-0.1c0-0.2-0.1-0.3-0.1-0.5h-0.1
					c0-0.3-0.1-0.6-0.1-0.9h-0.1v-0.4h-0.1v-0.4h-0.1v-0.6h-0.1v-1h-0.1c-0.2-0.7,0-2,0.1-2.5v-1h0.1v-0.7h0.1
					c0-0.3,0.1-0.6,0.1-0.9h0.1v-0.5h0.1V70h0.1v-0.4c0.1,0,0.2-0.1,0.3-0.1V69h0.1v-0.3h0.1v-0.3c0.1-0.1,0.3-0.2,0.4-0.3v-0.4
					c0.1,0,0.2-0.1,0.3-0.1v-0.1c0.1,0,0.2-0.1,0.3-0.1v-0.3c0.2-0.2,0.4-0.3,0.6-0.5v-0.3c0.4-0.4,0.9-0.8,1.3-1.2
					c0.2-0.2,0.3-0.4,0.5-0.6h0.3c0.2-0.2,0.3-0.4,0.5-0.7h0.3c0.1-0.2,0.3-0.3,0.4-0.5h0.3c0.1-0.2,0.3-0.3,0.4-0.5
					c0.2,0,0.3-0.1,0.5-0.1c0.1-0.1,0.2-0.3,0.3-0.4c0.2,0,0.3-0.1,0.5-0.1v-0.1c0.2-0.2,0.3-0.2,0.7-0.3c0.6,0.6,1.1,1.3,1.7,1.9
					c0.3,0.3,0.8,0.5,0.9,1h-0.1c-0.4,0.5-0.9,0.6-1.4,0.9c0,0.1-0.1,0.2-0.1,0.3c-0.1,0-0.3,0.1-0.4,0.1c-0.1,0.2-0.3,0.3-0.4,0.5
					h-0.3c-0.1,0.1-0.2,0.3-0.3,0.4C361.2,67.4,361.1,67.2,360.9,67.8"/>
			</g>
		</g>
	</g>
</g>
</svg>
